<mxfile host="app.diagrams.net" modified="2020-12-02T22:02:35.130Z" agent="5.0 (Windows NT 10.0; Win64; x64) AppleWebKit/537.36 (KHTML, like Gecko) Chrome/87.0.4280.66 Safari/537.36" etag="3v_APp1Lb_-JzbJrIHaZ" version="13.10.5" type="github">
  <diagram id="kgpKYQtTHZ0yAKxKKP6v" name="Page-1">
    <mxGraphModel dx="1210" dy="647" grid="1" gridSize="10" guides="1" tooltips="1" connect="1" arrows="1" fold="1" page="1" pageScale="1" pageWidth="850" pageHeight="1100" math="0" shadow="0">
      <root>
        <mxCell id="0" />
        <mxCell id="1" parent="0" />
        <mxCell id="adMJRQDWogwTSIwhdotk-1" value="" style="shape=image;verticalLabelPosition=bottom;labelBackgroundColor=#ffffff;verticalAlign=top;aspect=fixed;imageAspect=0;image=data:image/png,iVBORw0KGgoAAAANSUhEUgAAALAAAAHaCAYAAACgr8PWAAAgAElEQVR4Ae2d/3McR5mH+XP0g6v8gyquclV05zobYzAKkU8GRSRGSrBOgK3UcY4hkcM5C8lFThQ5MS6JBC1JjIONRSziGGPFIhCCXVadTrd3Otu5+HQEITBI5atsorCiBO/VO7Ozao9XrfnSvdvT/dkqlWbU3e90P++zvb0zs6uPER4gkGECH8tw39F1ECAIDAkyTQACZzp96DwEhgOZJgCBM50+dB4Cw4FME4DAmU4fOg+B4UCmCUDgTKcPnYfAcCDTBCBwptOHzkNgOJBpAhA40+lD5yEwHMg0AW0C/+nCq4SfFQaZtsTgzkPgGj3RDHYg012DwBAYAlcjgOXDyvKBWeChhwBmYMzAesyqUVQIDIFrpJqew0BgCKzHrBpFhcAQuEaq6TkMBIbAesyqUVQInDGBS4Wj1LL/HM0vyw2ZP91DXacX5JXKpVP9PTRyI1JVaaU4x5QGilEIgQ0VuPTuKOXaN1HDuka6o72PRt5dIqIFGjuQo7Gba2c4jkwQuApPnAdOcx54gc7s6aT8VZaWiN47SV1bh+lKFc6r/QkCr0Ym4t8hcBqBizR2oJX2nbpG8yUfeKnIMheob90ATdECjXT3UO/BdlrPM/TuYzSS76E7NzTS+s29dGaOiAXesqubWjY0UkNTN+Wn/SfD/OVh6mhqpIZ1m6hjaMJbilRm4MUZGinHXN+aK8/6S3T9VK8Xu6Gpk3Ln524xoDR9zI+3oZ06djWXly1LdCXUn1saKdzBEsLQJQQtL9ClfC+1bd4oLCFuFfj4e0S0zLI3UtcJX6zihZwnEQvckr/mq8IzePcozZcmKNc8QJeKfrtLh1opd3GJAoFnT3RW4nizfvtJmqUCHd7aS8cLc1S8UaCRobdptiLgHB1v7yG/Hyxtu3fs0sU+aumfoCKv0/nY+8eJD6njAYFNFHh5iYrejOunvDQzSl3NvIQQBeaZ2H9M9TdS32R5Z3KgIvDKm7hyuxuj1NVfKFckonLdQODgt1+BZ3n/GMWr5+jww93UsnkrdeSvUflFwX9F4CdGOWKwbOHfvHav/Gw4WunrysHVbEFgIwUuUF8TLwXKa+Cb45RrYgniCcwzcCmYBVm04jj1Smbg6/nW22fg+XHKPTxKsxxn+RoN3r3yxCESZ+AiTR3xZ2B+FegYKvgz8HKR5iO86UyqMwQ2UWAiEs9CrN/cQ/kCvwjHE7i3f5jaeL2bcg0crGcbNrRTr2QN3LW71V8D8/JnyF+TV1s3J5W1WjsIbKjA1ZKFv91OAAJnSeDJAWoQ17C359O5v0DgzAtcoMHmYW1vkkx/RkDgzAssV4zPCFTOUMirZrIUAhsqML+J623dSA3rNlLLwVG6vuif9mpo765cOPDfUAVv7Ihobrx8+XkTtQ0VaE44ncUSV41ZmqGR/Vv9CyLtfTR263UK46WGwEYKLJyeIqLZEz3UxhcqeA18YNw/PVWcoL7mAZpaDgSeo+P399BI+eLGpUOdNHjVvyLnz8CrxCwcpS0Pn6Sp94o0PzlKg29my2AIbKTABeoTLhBQcAHiljdx/uXkkRuBwPxbuHiwrpG6XlvwLin7Aq8Sc7lIV84epX272+nOzSuXnI2fessdhMBGCjxD+ebyJdrIM/AM5Vt76UxwW+TNBW+m9tbAlznb1WPOX+ijfafLs+70MG3P2FkOCGykwKusVycHqOPQUdq3eSOtXFQIZmDx4sdGunPPMbqySFQqDHs39Ky6Bl68Rvk9/hqYb+DBGrg8teNutDR3o8V4AV+eKN+hFqONRVUxAxs6A0dzjGffjdQyVBBusInW0pZaEDjTAtuiYfJxQGAInNweA1pCYAhsgIbJuwCBIXByewxoCYEhsAEaJu8CBIbAye0xoKU2gQ0YG7rgAAEI7ECSbR4iBLY5uw6MDQI7kGSbhwiBbc6uA2ODwA4k2eYhQmCbs+vA2CCwA0m2eYgQ2ObsOjA2COxAkm0eIgS2ObsOjA0CO5Bkm4cIgW3OrgNjg8AOJNnmIUJgm7PrwNggsANJtnmIENjm7DowNgjsQJJtHiIEtjm7DowNAjuQZJuHCIFtzq4DY4PADiTZ5iFCYJuz68DYILADSbZ5iBDY5uw6MDYI7ECSbR4iBLY5uw6MDQI7kGSbhwiBbc6uA2ODwA4k2eYhQmCbs+vA2CCwA0m2eYgQ2ObsOjA2COxAkm0eIgS2ObsOjA0CO5Bkm4cIgW3OrgNjg8AOJNnmIUJgm7PrwNggsANJtnmIENjm7DowNgjsQJJtHiIEtjm7DowNAjuQZJuHCIFtzq4DY9MmcNMndhB+Vhg44FJdhgiBa/REq0t2HTgoBIbAmda8JgIXpq/Q9JVrTv3wmMUlVKYtMbjzNRPYYAZaugaBtWC9LSgEvg2Jmj9AYDUc14oCgdcilLAcAicEF7MZBI4JLGp1CByVVLp6EDgdv1VbQ+BV0SgtgMBKca4Eg8ArLHRuQWBNdCGwJrChsBA4BETVLgRWRVIeBwLL+SQuhcCJ0cVqCIFj4YpeGQJHZ5WmJgROQ0/SFgJL4CgsgsAKYYqhILBIQ982BNbEFgJrAhsKC4FDQFTtQmBVJOVxILCcT+JSCJwYXayGEDgWruiVIXB0VmlqQuA09CRtIbAEjsIiCKwQphgKAos09G1DYE1sIbAmsKGwEDgERNUuBFZFUh4HAsv5JC6FwInRxWoIgWPhil4ZAkdnlaYmBE5DT9IWAkvgKCyCwAphiqEgsEhD3zYE1sQWAmsCGwoLgUNAVO1CYFUk5XEgsJxP4lIInBhdrIYQOBau6JUhcHRWaWpC4DT0JG0hsASOwiIIrBCmGAoCizT0bUNgTWwhsCawobAQOARE1S4EVkVSHgcCy/kkLoXAidHFagiBY+GKXhkCR2eVpiYETkNP0hYCS+AoLILACmGKoSCwSEPfNgTWxBYCawIbCguBQ0BU7UJgVSTlcSCwnE/iUgicGF2shhA4Fq7olSFwdFZpakLgNPQkbSGwBI7CIgisEKYYCgKLNPRtQ2BNbCGwJrChsBA4BETVLgRWRVIeBwLL+SQuhcCJ0cVqCIFj4YpeGQJHZ5WmJgROQ0/SFgJL4CgsgsAKYYqhILBIQ982BNbEFgJrAhsKC4FDQFTtQmBVJOVxILCcT+JSCJwYXayGEDgWruiVIXB0VmlqQuA09CRtIbAEjsIiCKwQphgKAos09G1DYE1sIbAmsKGwEDgERNUuBFZFUh4HAsv5JC6FwInRxWoIgWPhil4ZAkdnlaYmBE5DT9IWAkvgKCyCwAphiqEgsEhD3zYE1sQWAmsCGwoLgUNAVO1CYFUk5XEgsJxP4lIInBhdrIYQOBau6JUhcHRWaWpC4DT0JG0hsASOwiIIrBCmGAoCizT0bUNgTWwhsCawobAQOARE1S4EVkVSHgcCy/kkLoXAidHFagiBY+GKXhkCR2eVpiYETkNP0hYCS+AoLILACmGKoSCwSEPfNgTWxBYCawIbCguBQ0BU7UJgVSTlcSCwnE/iUgicGF2shhA4Fq7olSFwdFZpakLgNPQkbSGwBI7CIgisEKYYCgKLNPRtQ2BNbCGwJrChsBA4BETVLgRWRVIeBwLL+SQuhcCJ0cVqCIFj4YpeGQJHZ5WmJgROQ0/SFgJL4CgsgsAKYYqhILBIQ982BNbEFgJrAhsKC4FDQFTtQmBVJOVxILCcT+LSLAo8f7qHuk4vJB5zPRpCYE3UUwu8vECXhnrozg2N1LBhK3Xlr1Fplb7On32ItudnVimN/mcILLBq+sQOCn44ma490go8e6KTtvdPUHGZiJYX6MzDmyh3cUkrRggs4A3k5d8QeIdAJsrmAo1099JYUag7f42m5paIFq9Rfs9WWr+uke5o76OxG0Q0OeC/9BffplzrMF1ZJipdHqC2/gKVqtUXwpamj1FHE8/y7dSxq9mPszxHY9/spDu8YwzT1KLQwLBNLCE0JSTdDFygvnUDNFWlb6W5Ak3N+GYXL+R84QKBiag0OUB7h05S3+6jNFUiqlq/EneOjrf30PH3eJZfoiv5di/e7Ilu6jo159UqXhygtheuVVqYtgGBNWUkncCSGXhunHK7/Bm4YV3jbQITLdCZPY2070J5+q5WvzLmAvV1j9J8eT9YQkz1NxLHrvzsOVepU2lqyAYE1pSIdAITrbYGnjqykXrLchbPV5mBf9lHHd4MPOC99FetXxmzOAMXaeqIPwNfz7fTvrPlsxHLRZoXlzKVtmZsQGBNeUgrMAnr0IamTsqdnvHOQpRmRmnf5o3emYl9X+2hLfzyHiwh5kap6/6TdJ3XwIWj1HZogt6vVl8Ys7gG7trd6s/oizM0Ul4Dr9/cQ/lpvW8ehe7E3oTAsZFFa5Ba4GiHcb4WBNakQDYEXqJLT2yi7f0FKk4P0+CkJhgaw0JgTXB1C6zm4kWBBoeuUXFygLY3DdCl1a6UaGKkIiwEVkGxSgwtAt8Ypa7+QpWjufsnCKwp92kF5jdXXfxmbd0mavvmOM2zvMGpLZa4/MbtylAnDV71B1E830t7zxbptrZcvDhDx/cLF0D4NG+1ixzeJexu7yJGQ1M3DV42+94ICGykwEs0WyjQdT59tVyksQM9NMJX3MQZODjzcHWY2ob4QkORxvY/RGduVm/Lp+W6TpQvTkwe9a/SVbkoUrrYR9sPlS9hFyeor7nP6KUFBDZSYKLZ833U5s3AfEFBIjDN0fE9w3Tl5jj1PjHhnWqr1naqvxxDHG+Vixx8MaNPeDNXtZ0Yo87bEFhTAtItIQp0eEPOvxciPAMfmvB7HMzAPPeezVHvwd7yzT7V24ozcOnqSdr3QoEmqlwU4cvTmIGJKnei4WYe/668eM+TJbp+qte7lXL95l7a293sr3NLBRps3UgNwhrYi3vzHO3d6t/EQ7RK21vWwAP0i3miqhdFsAb2U4W70a7c8iSOJ7Cu2jN0/OEB+oW/FNZ1kJrGxRJCE+50SwhNnaIiXTneS72vmX1mIc7oIXAcWjHqminwHI2dmKB5vknekgcE1pRIMwXWNNg6hoXAmuBDYE1gQ2EhcAiIql0IrIqkPA4ElvNJXAqBE6OL1RACx8IVvTIEjs4qTU0InIaepC0ElsBRWASBFcIUQ0FgkYa+bQisiS0E1gQ2FBYCh4Co2oXAqkjK40BgOZ/EpRA4MbpYDSFwLFzRK0Pg6KzS1ITAaehJ2kJgCRyFRRBYIUwxFAQWaejbhsCa2EJgTWBDYSFwCIiqXQisiqQ8DgSW80lcCoETo4vVEALHwhW9MgSOzipNTQichp6kLQSWwFFYBIEVwhRDQWCRhr5tCKyJLQTWBDYUFgKHgKjahcCqSMrjQGA5n8SlEDgxulgNIXAsXNErQ+DorNLUhMBp6EnaQmAJHIVFEFghTDEUBBZp6NuGwJrYQmBNYENhIXAIiKpdCKyKpDwOBJbzSVwKgROji9UQAsfCFb0yBI7OKk1NCJyGnqQtBJbAUVgEgRXCFENBYJGGvm0IrIktBNYENhQWAoeAqNqFwKpIyuNAYDmfxKUQODG6WA0hcCxc0StD4Ois0tSEwGnoSdpCYAkchUUQWCFMMRQEFmno24bAmthCYE1gQ2EhcAiIql0IrIqkPA4ElvNJXAqBE6OL1RACx8IVvTIEjs4qTU0InIaepC0ElsBRWASBFcIUQ0FgkYa+bQisiS0E1gQ2FBYCh4Co2oXAqkjK40BgOZ/EpRA4MbpYDSFwLFzRK0Pg6KzS1ITAaehJ2kJgCRyFRRBYIUwxFAQWaejbhsCa2EJgTWBDYSFwCIiqXQisiqQ8DgSW80lcCoETo4vVEALHwhW9MgSOzipNTQichp6kLQSWwFFYBIEVwhRDQWCRhr5tCKyJLQTWBDYUFgKHgKjahcCqSMrjQGA5n8SlEDgxulgNIXAsXNErQ+DorNLUhMBp6EnaQmAJHIVFEFghTDEUBBZp6NuGwJrYQmBNYENhIXAIiKpdCKyKpDwOBJbzSVwKgROji9UQAsfCFb0yBI7OKk1NCJyGnqQtBJbAUVgEgRXCFENBYJGGvm0IrIktBNYENhQWAoeAqNqFwKpIyuNAYDmfxKUQODG6WA0hcCxc0StD4Ois0tSEwGnoSdpCYAkchUUQWCFMMRQEFmno24bAmthCYE1gQ2EhcAiIql0IrIqkPA4ElvNJXAqBE6OL1RACx8IVvTIEjs4qTU0InIaepC0ElsBRWASBFcIUQ0FgkYa+bQisiS0E1gQ2FBYCh4Co2oXAqkjK40BgOZ/EpRA4MbpYDSFwLFzRK0Pg6KzS1KyZwFffeZdc+oHAabSM3rYmAjd9Yge5/hM9JagZhwAErtGTK05SUDc6AQgMgaPbYmBNbQIbOFZ0yUICENjCpLo0JAjsUrYtHCsEtjCpLg0JAruUbQvHCoEtTKpLQ4LALmXbwrFCYAuT6tKQILBL2bZwrBDYwqS6NCQI7FK2LRwrBLYwqS4NCQK7lG0LxwqBLUyqS0OCwC5l28KxQmALk+rSkCCwS9m2cKwQ2MKkujQkCOxSti0cKwS2MKkuDQkCu5RtC8cKgS1MqktDgsAuZdvCsUJgC5Pq0pAgsEvZtnCsENjCpLo0JAjsUrYtHCsEtjCpLg0JAruUbQvHCoEtTKpLQ4LALmXbwrFCYAuT6tKQILBL2bZwrBDYwqS6NCQI7FK2LRwrBLYwqS4NCQK7lG0LxwqBLUyqS0OCwC5l28KxWiPwBx98SOfG3qRHHnuSeh56lHbu6q78d1De5r9xGdfhunjYQSDzAv9bYdqTU/xXttvu+hx95YEv3fLDfxPrsNDcFo9sE8iswP99feYWcXP/tI9+fPgpWnj9BP3pwqtVf7iM63ztKw9WZGaRORYe2SSQSYF/MvazioAs7q9/9HJVYVcTmf/ObbhtMCtzTDyyRyBzAj83lPeka925i6Zf+W5sccNScwyOxSJzbDyyRSBTAj/x9BFPtI77HpAuFcKSrrXPSwuOyRLzMfDIDoHMCBwsG/jN2VpCJi3n2CwxlhMQWCkBPlvAYnXc90WlM29YdH8m/qJ3LLyxU5pCbcEyMQPzedxtn2lTsuYNSxve5zUxH4uPiYf5BIwXOFg6PJ87qG3pEJaYj4WlhPnycg+NF3jnff9A2+5q07p0CAvMSwnMwhA4NYG3fnXZmwlrOfsGMj/zyCPesXG1LnUatQYwegZ+dnDYk0jF+d5AzKi/+Zi8jOA+4GEuAaMF5jdSrTvvq9naNyw3X+DAmzlz5eWeGS0wz4B830JYrFrtB/dMmJ1Ct3tnrMB8yyMLXI/1b/AECc5G4PZLc58kxgocXLwwQWC8kYPAsQlA4NjInGyAGXiVe4d5GREsITADm/vcMFZgRlbvNXBwLtjc9KFnxgus8+6z4M3aar+Du9OgibkEjBZ4775HvVl4NcF0/51fAbgPeJhLwGiBf/jqGU/g8cFna34umI/JAnMf8DCXgNEC//7GHzyJ+LNrumfbcPzg83LcBzzMJWC0wIwtWEYk+eBmWMqo+3wsLB/MlVbsmfECB+eD93xR30eJwmLzsVhgfCpDVMXMbeMFZmyPP/2cJxR/p0NYNtX7fAyWl4+Jh/kEMiEw34uw874uTyydt1YGt1B2dv8jvn7KfHe9HmZCYO4pv5xv2/F5bZ+NY3n5Uxh8DCwdMmKv6bdThjHyJzS2tXyePnn3Pd5XRKlaPvCygWNybD4GHtkhkJkZOEDqz8T3esuJ5x87mOqzcvzZN47Ba95tO+7FzBtAztDvzAnMbHlN3Pmlr/rifaaNXul7IpbIgbi8ZGB5ORbu+c2QtUJXMylw0H/+yH3w5o5F/NqeBz2ZL784eMt3SPD6lv/GonMdrss/3BbfwhPQzObvTAscIOfLvQ8ffLIiZiDoar+5Li4RB/Sy/dsKgYMU8DKAL3zkj53wfj7Vuou2t+6q7HMZlgoBLTt+WyVwOCX37u6h+3b3hP+MfYsIQGCLkuniUCCwi1m3aMwQ2KJkujgUCOxi1i0aMwS2KJkuDgUCu5h1i8YMgS1KpotDgcAuZt2iMUNgi5Lp4lAgsItZt2jMENiiZLo4FAjsYtYtGjMEtiiZLg5Fm8Czv/1d5TbG4PbGWv/+9M4Oav5sR9378Yc/zrvoVk3GrE3gSxOTkW8wX+3Gc1v+/p//da0myXTxINoEfr/4gXdzOd9EXq8f/ieJ/F+G6nX84LgfLn7kols1GbM2gWvS+zUOghva1wBkQTEEtiCJLg8BArucfQvGDoEtSKLLQ4DALmffgrFDYAuS6PIQILDL2bdg7BDYgiS6PAQI7HL2LRg7BLYgiS4PAQJnLPulwlFq2X+O5pflHZ8/3UNdpxfklcqlU/09NHIjUtWVSjdGqat7lOp9mxIEXkmJUVuld0cp176JGtY10h3tfTTy7hIRLdDYgRyN3Vy7qxB4bUbG18juvRALdGZPJ+WvsrRE9N5J6to6TFdiEDdZYO5b32SMwUiqYgaWwKlfUZHGDrTSvlPXaL7k96JUZJkL1LdugKZogUa6e6j3YDut5xl69zEayffQnRsaaf3mXjozR8SSbNnVTS0bGqmhqZvy0/6TYf7yMHU0NVLDuk3UMTThLUUqS4jFGRopx1zfmivP+gKFxWuU382vChupZXcnbfGWEEt0JXRsoQWVpo9R1+aN3vHavjlO75zu8V5V+JWFJeZXmt5WLt9ILQdH6foiEU0OUMueh6hlw9pLGwgs0jZpe3mBLuV7qW3zRmEJcavAx98jomWWvZG6Tsx5vS9eyHlrXxa4JV++D5lncJatNEG55gG6VPTbXTrUSrmLSxQIPHuisxLHm/XbT9KswEQsZzFbukdp7mIftfRPUJHX5Hyc/ePE4f3HEs0WCnS9fLyxA76QKzPwHB1v7yFvHEQ0e6KH2ngckwO05VA5ZhBqld8QeBUwdf3z8hIVvRnX70VpZpS6mnkJIQrMM7H/mOr3ZzNvb3KgIvDKm7hyO37j1V8ot/JnOq4TCBz89ivwLL9yDP7bLeXlN3HijMqzasOGo5V+cZvZ833ek9ArWxcWuEB94hvBoH/lMax0dPUtCLw6m/qVLBeor4mXAuU18M1xyjWxGPEE5hm4FMyMLEpxnHolM/D1fGvkGbg4edSbgf/3Qo46hgr+DLxcpPlb3mAW6PCGHI1Vm4G9/2Y2Q/nm6jPwypNPngYILOdTt1LxLMT6zT2UL7AF8QTu7R+mNl7v6lgD7+mm7fyk4KXOkL/+bmjqpNx5fynjg1ui66d6K2vzvd3NNHiVqFQY9tbmsjUwBCai7J6FqNvzJnMHxgycuZShwyIBCCzSwHbmCEDgzKUMHRYJQGCRBrYzRwACZy5l6LBIAAKLNLCdOQIQOHMpQ4dFAhBYpIHtzBGwWuDPdXyJ2jq+nLmkoMPRCVgr8M/e+lXl2zHffOtidCKomSkCVgr8wQcf0t33PEAfv+se+vhn7vG2Fz/CN0RmysyInbVS4KeeHfJm31OnX6dXX/uJt/30c9+JiATVskTAOoGnr77jCfvAV/bRX/7yF/rrX/9KvM1fls1leNhFwCqBl5eXqf3+PfS3n2ylmV//ppIp3ua/cRnXwcMeAlYJ/L3v/9Cbab/9/Iu3ZWho+JhX9tIrI7eV4Q/ZJWCNwL/57Rz93ac/Rzs+v5tKS+VPMgh5+fOf/0yf/UK3V+d3v/+DUILNLBOwRuDuB7/uzbAT//rvq+Zj6j+mvTp79z26ah0UZIuAFQK//tMLnpgHn3hmTfqPPTng1T33xptr1kUF8wlkXuD33y/Sth33ej+8vdYjqL995xcoSv214qG8vgQyL/Bj//KMN6OeOfdGZJLBjP34U89FboOKZhLItMC83uXzu7z+jfsI1sy8LsYjuwQyKzCfaeAzDps+tZP4DETcB7fhtnxmgs9Q4JFNApkV+OgLL3mzb/7YycTk+X838wz+wovHE8dAw/oSyKTAqq6sBVfuks7i9U0djs4EMiew6nsbgnsnkqyjoVD9CWRO4B++esZ72T90eFAZvSefOerFHH39p8piIlBtCGRK4D/OL9CW5jbic7gffshfJKvmwbE45ta72+nmzf9TExRRakIgUwJ/9ZHHvJly/OdvK4fzxs/e8mJ/41tPK4+NgPoIZEZg/lgQnzFgiXU9+B4JPobsfgpdx0bcZAQyIfBHH/2J7mq731s+8DJC14PvUpPd0abruIibnEAmBOaPA/HMeOJHryUfacSW3z/5qnesI9/5XsQWqFZPAsYLHJzm2tX1oPcRId2w+GNIfCz+BMc77/6P7sMhfkoCRgscXGiotUws7t9s+3tPZBYaD3MJGC3wS6+c8l7Ov12Hl/Nnvv1CzZYt5uphfs+MFbjeb6hq9cbRfEXM7qGxAptwSusXb1/yZmGdp+7M1sP83hkp8Nnz454433i8/hcVgosn/FVVeJhHwDiBg4/88MeETLisy+ed+RIzn4fmZQUeZhEwTuBc32Fv9n3tJ2PGkOKvqOLz0PyVVXiYRcAogYOPvZt2a6PqWzjNUiDbvTFGYP6IEH+8x9Sby1XdRJ9tXczrvTECD373Ze9levjlH5hHqdyj4GNM+Hoqc1JkhMDi7GbyByyDD5LyDT/4eiozJK67wFlbXwYf5cfXU0Fgj8CpUf8dPn+sJyuPf36i31vunBvD11PVO2d1nYGDc6yqPyKkGyqfn47zdVa6++Ny/LoKHFzleuPNX2YuBz8+O+bNwt869Gzm+m5Th+sm8M9/mf37DPD1VPV/KtRFYFvu9MLXUzkqcP8R/yNCPzg1Wn8CKXvwwouveEuJ57+Hr6dKiTJR85rPwPwRIZs+7RD86wJTryAmsiJDjWoqcPARIRbYps+bifdw8HltPGpHoKYCv/yDEe/l9rmhfO1GWKMjPf70c97YTp/B11PVCLl3mJoJXO+PCOmGiq+n0k24evyaCWzCR4SqI1D3V/7HMXzf8KPfekpdUESSEqiJwOMRKQEAAADhSURBVHzJlRPrwveOufBElRpV40LtAgcfEXLlmx9tXyrV2M81D6ddYL7UyrPvj8+eX7MztlTg+4V5zDa+WTUtR1oFFk8vmTZwnf0JThfW+huFdI7J1NjaBHb9BH+tv9PNVMF090ubwEN5/7/Df/clcz8ipBtuLb9VU/dYTI2vTeBnjjxPbR1fNnXcNenX4kcf0d33PEAuP4l1g9YmsO6OIz4IMAEIDA8yTQACZzp96DwEhgOZJgCBM50+dB4Cw4FME4DAmU4fOg+B4UCmCUDgTKcPnYfAcCDTBCBwptOHzv8/vPoJmkQPuYcAAAAASUVORK5CYII=;" vertex="1" parent="1">
          <mxGeometry x="40" y="10" width="176" height="474" as="geometry" />
        </mxCell>
        <mxCell id="adMJRQDWogwTSIwhdotk-2" value="" style="shape=image;verticalLabelPosition=bottom;labelBackgroundColor=#ffffff;verticalAlign=top;aspect=fixed;imageAspect=0;image=data:image/png,iVBORw0KGgoAAAANSUhEUgAAALQAAAFjCAYAAACUgSERAAAgAElEQVR4Ae2d/28Td5rH98/JD5HyQ9RIkRoJCcSdhDgpp+w1irSIbI8oVcErtYFVMV1R02sxNATa0qS0MZQImpRA0gaaI01aWrqkpM3mvJsLaaEBNpddWnu5XXe5OlvD+/TMF39JYseT+PMZ2/MeaTQzn/nM88zn/bz8+PF8JvCzv8Vi4EoNyoWBnz18+BBcqUG5MPAzcKECZaQAgS6jYHIoAIEmBWWlAIEuq3ByMFqATnz/J/x0e7Zo18S9eZJQJgpoAVpg/nH0Au6cP43rpzoRvdhrHEubvX5xsjO5b7fp2i5+eQWPfvqpTELq7WFoBfpEYD+mz76N13/zPD44+ooBtoAs+/Y5gV6OBeb3jx6GnJcPgN1fBeTxK0N4eP97b5NQJqPXDrSAe/f8aQNW2T+yd68BrGxlFYDPHnwJ548cwljnMaNN+sm+AK4CaLH50zd/KJOQensYWoG2gZQsLPDKcfoqIF96td04J5lcQP71078ysrrsqyxLFic+AR498jYNZTB6PUDf+Ro/fvy+ozX64TmcOPACzh562dF1Tv0k+396EQ//er8MQurtIWgBOhH5E3765vdFvybu/Q8S979HInoPD//ynbGV/UKuD/836m3iFI9eC9D2Uw5V9W8p2RUtuKhTgECnPTrU8cEg0OpgFssEmkCrJUyzdQJNoDUjp9YdgSbQagnTbJ1AE2jNyKl1R6AJtFrCNFsn0CUMdDx8HPV7hhFJ5KYmMuBDy0B+z7+n2n3ov5fb3rKz9wbR0jqIyLIT+hsIdAkAHb85iEDTBlRUVuOxpiD6by4CiGJkXwAjeUxuEugCf7A4sZJ6Tdb5c+gohnY2I3RDIAZwtw8tm7sx4yBGBNqBWPl0JdDrATqGkX0NaDs3i0jcVDseE7jDCFZ2YApR9Lf64N/fhCrJ4Dt60B/y4fGaalRt9GNoARCgN21rRX1NNSrqWhGaNj8ckevd2F5XjYrKDdjeNWGULsmS48Ec+i2bVQ0B61shLdoPZhHaId8atajf0YxNRsmxiJklvtOu0LLLkqMESg4kohgP+dG4sTat5MgE+sxdAAmBvxotvQsGPLHRgFE7C9D1IWvKXTK8wBefQGBrB8Zj5nXjhxoQuLYIG+j53uakHeNboakP6X/Xk34+Pt2D+tZBLFwLor59AjGp6cXPnjGIeZ0LgS52oBOLiBkZ2cQiPjeIlq1ScqQDLZnaXKbaqxGctA4mO5JAp34UWtfJD7n2sNURgNXXBtremh3kWyDlQ9oyzls/Cr8e8Bl1vtT6xlpzPHlfKUdq9wh00QMdRrBOSgerhr4/hkCdgOIMaMnQcTtzSoaOjcGfI0PfCjXknaFjk8eNDH17NIDtXWEzQydiiOTxg7XQeBPoYgcaQPpTjqqNPoTC8kXuDGh/ezcapV5WUUPvbMUW+ZBIadRl1u8Vdc0IXDZLn0JDm8segS4BoHMFkOcyFXAFaPkTrGyvasofxOY6n+26Uml3/tguM2A8yq2AK0A//eRTBrTyd4JfnerCiRf2G8eyL383KH9vKFAL3LLOnO02+si+/XeF8jeHclwqINv3SaBzA7nes9qBlj+KFYAF2sCzbTjfHjS2cjz8+hEDWGmX4ytvvmYcyz97IG0nXwzgiH+v8Vfh8qEQqG1QSmVbLEDLo7zk05D1UlRE12sHWkCVLCuAvnf4ID558zXjr7vtv+qWc/KX3nLe/stvOSerwC/bL0+ZWVz+aYNSAdm+T+dAL584mXkAQCY2dm42J1OaghiR9y8SUXza3ozHKmVSxWdOoBg/1FqNNvlB2Hk9aky02I/WDKgXxqyp9Q1o7ArDmr8pIkzzvxXtQNuB9ep2bUA3IXTDDOp8r/miUXwhjKk5c9rCnkCJXwtiyyFrYuPeMHZZkx3JttgEgluDGI+bs4dmhl7AmV/60G9NzIwfakan5St/jIqnJ4Eu+qccZoZOvgF3tw+NMiEiWXWbmaEl28rEyUplxNI2e0Ik1S6P/6yJEGvb8kF+b+YVD8apOyHQJQH08gw99Vot/KNWhr5sTnFnZOj7nyP43DBmRwOprL00Q18XEOYQavBjyH5l9H7UnBhJMVJSewS6JIDeisYdqZePpIaWKfC2jbWoqNmMtmd82PTW7JIa2o8z8prpCjW0EBoPdxsvK0nZkZq4qcXjO3tg1OglhXHqZgl0SQC9hpfuUzH21B6BJtBlBTyBLnqgy4o35YMh0ARaOWQ6HRBoAq2TN+W+CDSBVg6ZTgcEmkDr5E25LwJNoJVDptMBgSbQOnlT7otAE2jlkOl0QKAJtE7elPsi0ARaOWQ6HRBoAq2TN+W+tAD98G9/Mf5XKfmfpby+PvrrX5QH1csOtADtZYE5dr0KEGi9etObYgUItGKBaV6vAgRar970plgBAq1YYJrXqwCB1qs3vSlWgEArFpjm9SpAoPXqTW+KFSDQigWmeb0KEGi9etObYgUItGKBaV6vAgRar970plgBAq1YYJrXqwCB1qs3vSlWgEArFpjm9SpAoPXqTW+KFSDQigWmeb0KEGi9etObYgUItGKBaV6vAgRar970plgBAq1YYJrXqwCB1qs3vSlWgEArFpjm9SpAoPXqTW+KFSDQigWmeb0KEGi9etObYgUItGKBaV6vAgRar970plgBAq1YYJrXqwCB1qs3vSlWgEArFpjm9SpAoPXqTW+KFSDQigWmeb0KEGi9etObYgUItGKBaV6vAgRar970plgBAq1YYJrXqwCB1qs3vSlWgEArFpjm9SqgB+iHDwGuKQ30xthT3rQB/aPm/7G1WP0ZH2xPIaZ3sARa8weNQKsFnEATaLWEabZOoAm0ZuTUuiPQBFotYZqtE2gCrRk5te4INIFWS5hm6wSaQGtGTq07Ak2g1RKm2TqBJtCakVPrruyAPhHYD3uW8M7503j/6OHksd3u5pYTKwTaEZB1//Svyf5fnOzE008+lTx2E2TbN4Em0KsCOdZ5DAKvQJMNaMncO//9KZwNvmT0k8wtx0f8exG92As7mx/ZuxfTZ99e1acNqNMtgSbQq8J19uBLEKizAS2ANvzbNgNcAV+O//lfnjAglmsDz7YZHwj5MIgdAdwpqPn2J9AE2hFc6Rla4LRLDsm8DT//BSRTC9QCtJyTVc5J2/ZfPOnIV74Qp/cj0AR6VcikfLAztEB74NndGOs6ZpYUe82S4oOjr0BWAdnI2D//hdFHShA5FqBt+NMBLPQ+gSbQqwItMAuQAp/UwpJxBU4pJ6R8kFUys5QWNvjyIfj1078y+qbX0IUGeKk9Ak2gVwV6KTTFfEygCTSBVstAWVkvu4mVYs7Ocm/M0Go/PwSaU99qCdNsnUATaM3IqXVHoAm0WsI0WyfQBFozcmrdEWgCrZYwzdYJNIHWjJxadwSaQKslTLN1bUD/Y/pLcP2Sz6EVA64H6MRPgMvr3dt3IKvb92H4VxxUL5vXA3QRKHz63X6cPttfBHdSuFuIh4+jfs8wIoncNiMDPrQMRHN3ss5OtfvQfy+vrqlO9wbR0jqISKrFtT0C7Zr0+TuO3xxEoGkDKiqr8VhTEP03FwFEMbIvgJH7q9sh0KtrVHI9SjdDRzG0sxmhGwIxgLt9aNncjRkHESDQDsQqla6lC3QMI/sa0HZuFpG4qXY8JnCHEazswBSi6G/1wb+/CVWSwXf0oD/kw+M11aja6MfQAiBAb9rWivqaalTUtSI0bX44Ite7sb2uGhWVG7C9a8IoXZIlx4M59Fs2qxoC1rdCWrQfzCK0Q741alG/oxmbjJJjETNLfKddoWXXMyXH+fc/hKwluSSiGA/50bixNq3kyAT6zF0ACYG/Gi29C8YwY6MBo3YWoOtDs+bQJcMLfPEJBLZ2YDxmXjd+qAGBa4uwgZ7vbU7aMb4VmvownyZe+vn4dA/qWwexcC2I+vYJxKSmFz97xiDmdS6eAVqnqAX1lVhEzMjIptX43CBatkrJkQ60ZGpzmWqvRnDSOpjsSAKd+lFoXSc/5NrDVkcAVl8baHtrdpBvgZQPacs4b/0o/HrAZ9T5Uusba83x5H2lHKndI9Bq9V2/9UQYwTopHawa+v4YAnUCijOgJUPH7cwpGTo2Bn+ODH0r1JB3ho5NHjcy9O3RALZ3hc0MnYghkscP1vULlGmBQGfqUZRH6U85qjb6EArLF7kzoP3t3WiUellFDb2zFVvkQyKlUZdZv1fUNSNw2Sx9dIpKoHWqTV/KFfAM0OHpGchaiktGvZp1AHbGztphlRPrvX6p+ULbW2p/5WPPAF26j+1SP8Ail3ZjS2hu5UgmS5Asp1dtXiuAUQw904DQzaUO1mpvqR1nxwTamV6u9GaGzl92Ap2/Vq71TAJtPVqTR2z1ewJo2ViLipom+EflPQ3JiD7s2rMZVZW1eFze8QAgz4iNfpUb0HhgLPN9i8QCRpITMq1oNCZqcl8z09WMzhumFLHLfuy6FEs9wstib/5y0PxBWrMZLe/MwpofUqIngVYia2GNrgR01XPWS0lzfWg0ZulMoM0JljmcaZKXjBYxHw7jljV5MrIv88Wj+LUgthyyJkLuj8FvAJ37GtzoRmOXTNLEMLJnN4bup0qile3FcOvarPkCVWIWoScyn2cXVimAQBdaUQX2VgI6Y6IkCXQKFvsaIztKJjcmOzKBlhnE5CRMWg2e6xpgAWd2dmNGPgAvTRjZ1va1sj2ZDt+NLcYUu0y4pO5RgVQEWoWohbZpA2PP5iW3hqMwglmBDuNoTQAj+WToe8PYZcCW+xpxGbsUgH+/35gql2P7/jIytG0vMoyWbT2YkTojzgxdMDbK4SlHEmS7ll4V6EXcOudPvqi0q3Vrsv41Ls2oeX1orJHsuco1cuH9YeySN/6s97BtoLGivRjG25vxmPHqqx8tT/jND1jBIptpiCVHph48KnEFCHSJB5C3n6kAgc7Ug0clroBngB4Z+xSycilvBTwDdHmHkaOzFSDQthLcloUCBLoswshB2AoQaFsJbstCAc8A/fn4BGTlUt4KeAboUp4pLG8ECzs6Al1YPWnNZQUItMsBoPvCKkCgC6snrbmsAIF2OQB0X1gFCHRh9aQ1lxUg0C4HgO4LqwCBLqyetOayAgTa5QDQfWEVINCF1ZPWXFbAM0CPT0xCVi7lrYBngC7vMHJ0tgIE2laC27JQgECXRRg5CFsBAm0rwW1ZKOAZoC9dHoOsXMpbAc8Azfehyxtke3QE2laC27JQgECXRRg5CFsBAm0rwW1ZKOAZoM8NXsR7F4bKImgcRHYFPAN0dgl4ppwUINDlFE2OxTv/gj9j7Q0FmKG9EWfPjJJAeybU3hgogfZGnD0zSgLtmVB7Y6AE2htx9swoCbRnQu2NgRJob8TZM6Mk0J4JtTcGSqC9EWfPjJJAeybU3hgogfZGnD0zSgLtmVB7Y6AE2htx9swoCbRnQu2NgRJob8TZM6Mk0J4JtTcGSqC9EWfPjJJAeybU3hgogfZGnD0zSgLtmVB7Y6AE2htx9swoCbRnQu2NgRJob8TZM6Mk0J4JtTcGSqC9EWfPjJJAeybU3hgogfZGnD0zSgLtmVB7Y6AE2htx9swoCbRnQu2NgRJob8TZM6Mk0J4JtTcGSqC9EWfPjJJAeybU3hgogfZGnD0zSgLtmVB7Y6BagD75yis41b6+9dzrxzDy5ms4fOBl9PSeL9lV/s9xLuoU0Ab0j6MXsLZ1IHndHwd68GFvnzo1NFgm0GpF1gr0+0cPJ+HMCfeYCX/c2tp9CbRaGMrBulagTwT2G0AL2LJvb4/s3Yvh148g8Gyb0W4DvHRLoMsBObVj0A709VOdOPliALIVqAXmEy/sx4Ujh4ytHC8F2T7+uu8kSw61PJS8da1A3zl/Gl+c7ET0Yi+mz3Yb4Mq+3S4ZW45tgNO30Q/7cOHVDkzPzJa06Kyh1YZPC9BdBw8icvFdRC6etbayn7kK1LIubZfjOwM9OH/sSMnDLKEk0GUA9NED/4H+t95a83rmjTfKAmYCrRZmsa4lQzMrpQJJLVJaqNgj0CpUzWGTQOcQpwCnCHQBRHRigkA7Uct5X+1A/8crr+Lbb29DtqGeXvz53ndZ71rO/y48jW/nbhv9ZH+l5cORj41+K50rtjYCrTYi2oG2If3st9eNkX1zaw7HOrvx3oUhA3DZH71y1dh/bv9BCKzSV66TfdlKH/s621422NXK59w6gXaumZMrXAFasvKutudx9dp1fDD8Ec4NXDQgteHsG7hotO194aABsMCaDvPwyCdJyO1rvAh0PHwc9XuGEUnkDnlkwIeWgWjuTtbZqXYf+u/l1TXV6d4gWloHEUm1uLanHWjJxD/88HdjtSGUbCttArp9TtpktUsS2drnpV0Wu03s2G2uKZmn47Vk6PjNQQSaNqCishqPNQXRf3MRQBQj+wIYub+6YwK9ukaOeqwliI4clFBn51pEMbSzGaEbAjGAu31o2dyNGQdjJtAOxMqnq/Mg5mO1NPs41yKGkX0NaDs3i0jcHHM8JnCHEazswBSi6G/1wb+/CVWSwXf0oD/kw+M11aja6MfQAiBAb9rWivqaalTUtSI0bX44Ite7sb2uGhWVG7C9a8IoXZIlx4M59Fs2qxoC1rdCmuYPZhHaId8atajf0YxNRsmxiJklvtOu0LKrveTQMqoiduIcaACJKMZDfjRurE0rOTKBPnNX+gn81WjpXTAUiI0GjNpZgK4PWe/ASIYX+OITCGztwHjMvG78UAMC1xZhAz3f25y0Y3wrNPVhPk3X9PPx6R7Utw5i4VoQ9e0TiElNL372jEHM61wItE611/IuR2IRMSMjmzcanxtEy1YpOdKBlkxtLlPt1QhOWgeTHUmgUz8Krevkh1x72OoIwOprA21vzQ7yLZDyIW0Z560fhV8P+Iw6X2p9Y605nryvlCO1ewRarb7LrDvO0IkwgnVSOlg19P0xBOoEFGdAS4aO25lTMnRsDP4cGfpWqCHvDB2bPG5k6NujAWzvCpsZOhFDJI8frMsEWmcDgV6ngE4vdww0gPSnHFUbfQiF5YvcGdD+9m40Sr2soobe2Yot8iGR0qjLrN8r6poRuGyWPk41Wk9/Ar0e9dZw7VqAXoMbz15CoDWH3hWg5/qwvc6H/oUohro0TIBY9bhmaQ13BFqz6m4AHRnoxlBkAf07N2D7OQ1lAIHWTJWL7twAWvtwCbR2yV1zuBag5Uehv6HWnMTYP4hbD8zHbPV7AubESE0T/NYPsMjVDvPHX81mtMiTDQDzl4OptnfMthVtpqkiz5ZbNtaiomYz2j6QrB5G8Ak//PZkyqE+nDnQjMeM6fhuTMk92Usa0CtN3qzoe7IDK43HNpnvliVHvkoVqJ9zoBdwpskHY+JE4Oz1oVEmTiY7ULFvzHxEFptAcGsHph6kT5ZEMfSMvGgUw61rs+YLTIlZhJ6Q58lZbNpjlEmXBnvSZQFnWv0YiYUR3Gy3iZ2tCF4zp01mQk2pZ99iwwZ6xcmbO/mPZ5WXruzbTd8S6HQ1NOw7BzqMoDGtbN2cPSEiQKdNjIy/5EP/9JLJEuMSmY7ejS3GFLdMeAjQWWza4xcf9uSIsa3F0XD6NeZ0u/1WnsxEJidzxIYNtH2vtl2j/bP8x+P0rT/+TaGttL6tc6DnENq6lgwdw6ftfgz9YRgt23owI7VH3M7QWWzaMsikyy+7MWXNW8ci1nPv5AcrT6BXnLz5Ov/xMEPbESnerXOgzYmVlWroiqbWnDV0W+8c4ohhvN2udf1oeULKhyw202ST2teooSs3oPHAGOZlxtIp0ACc1NArjSftlvLaZcmRl0yF67QWoFf0vqTkSO8Tu3ocbdaPv/T2ot7PMR4n902gnahVgL46gI4vfI7gNv0vBq1LHgK9Lvlcu7hgQOcYQWxyGEM3rAI4R79yPMUMrTmqOoDWPKSickegNYeDQKsVnECr1XeZdQK9TJKCNhDogsq5ujECvbpG6+lBoNej3hquJdBrEM3BJQTagViF6EqgC6FidhsEOrs2Ss4QaCWyJo0S6KQUenYItFqdCbRafZdZJ9DLJClogzagr1wdB9dx/h8rBcV3uTEtQC93yxYqoEYBAq1GV1p1SQEC7ZLwdKtGAQKtRldadUkBAu2S8HSrRgECrUZXWnVJAQLtkvB0q0YBAq1GV1p1SQEC7ZLwdKtGAQKtRldadUkBAu2S8HSrRgECrUZXWnVJAQLtkvB0q0YBAq1GV1p1SQEC7ZLwdKtGAQKtRldadUkBAu2S8HSrRgECrUZXWnVJAQLtkvB0q0YBAq1GV1p1SQEC7ZLwdKtGAQKtRldadUkBAu2S8HSrRgECrUZXWnVJAQLtkvB0q0YBAq1GV1p1SQEC7ZLwdKtGAQKtRldadUkBAu2S8HSrRgECrUZXWnVJAQLtkvB0q0YBAq1GV1p1SQEC7ZLwdKtGAQKtRldadUkBAu2S8HSrRgECrUZXWnVJAQLtkvB0q0YBAq1GV1p1SQEC7ZLwdKtGAQKtRldadUkBAu2S8HSrRgECrUZXWnVJAQLtkvB0q0YBAq1GV1p1SQEC7ZLwdKtGAQKtRldadUkBAu2S8HSrRgECrUZXWnVJAS1Av3rgRYye6tayfvTGURx9+RA++uQqrlwdL7r1+IlTLoXaG261AP3Rqbfx4+iFjPXe0LsZx0vPr+e4/623EV9cLMoIfvLZtaK8r3K5Ka1ARy/24uknnzJA7nn5RXxxstPYl/ZcAEu/sc5jGX1yXUOgywVP5+PQCvT7Rw/jiH8vZCtAB55tw3uHDybbfv30r3D8N8/jyN69mD77trF97/DLRj+B+kRgP84efMns4zf7rPRBINDOQSiXK7QCLQALmAKsgCnr8OtHDFDvnD9tbAVa6XP+yKHksfSXNoFcbMgHQvqtlKX/9p/ncLarkyVHuRDqcBxagV4pmxayLXb5HIZPvo3wH6YdyqCvO2totVprAbr78GF89c6b+OqdE8rW6yc7cebYsaKGWUJJoMsA6NPvnsf0ja+Vr1Ph4s3MdhgJtK2Emq2WDM0gpoJHLVJaqNgj0CpUzWGTQOcQpwCntAP9u/A0fvjh7zg3cNFYs43hz/e+w++nZyBbWeS6lZbPfnt9peaibSPQakPjCtDvXRjCN7fmDLAFyFBPL76duw1pF3DtttErVzF65XPjfHp7el+5tpQWAq02Wq4CLdlXgBRY+wYuGls5lvXDkY+TbTbg2fqqlaiw1gsJdDx8HPV7hhFJ5L7HyIAPLQPR3J2ss1PtPvTfy6trUXbSDrSAKiWHZGM7U8tWsq4AbmdiabNLDgFa2mWVduln9z3W2V2Uwma7qbUAHb85iEDTBlRUVuOxpiD6b8p7KlGM7Atg5H42T6l2Ap3SoiB7awliQRwXoRHnWkQxtLMZoRvWy1Z3+9CyuRszDsZGoB2IlU9X50HMx2pp9nGuRQwj+xrQdm4Wkbg55nhM4A4jWNmBKUTR3+qDf38TqiSD7+hBf8iHx2uqUbXRj6EFQIDetK0V9TXVqKhrRWja/HBErndje101Kio3YHvXhFG6JEuOB3Pot2xWNQSsb4Xi11x7yVH8kqi9Q+dAA0hEMR7yo3FjbVrJkQn0mbvST+CvRkvvgjGI2GjAqJ0F6PrQrDkwyfCtg4jEJxDY2oHxmHnd+KEGBK4twgZ6vrc5aQdyTVMf5tVKUxDrBLogMuZvxDHQiUXEjIxs+ojPDaJlq5Qc6UBLpjaXqfZqBCetg8mOJNCpH4XWdfcG0dIetjoCsPraQNtbs4N8C6R8pC4qvj0CrTkmzoEOI1gnpYNVQ98fQ6DuOKYcAi0ZOi5PQ+wMHRuDP0eGvhVqYIbOxobjIGYzVAbta9Ei/SlH1UYfQmGpE5xlaH97NxqlXmYNvX6KXu0Koe/CB8n1k6uZf4b0/qWR5Dnpd/0r+wsUePToUcY5OT89Y9WDAP7+4P+WnZ+788fkTX/3fWTZeWmzl9t355edl8eK9iIvVaXfu+w/fPjIPo2Jr6Yyzr9/6XLynOwIwOnXH+sMZZznQWEV0FJyfHzltwYEAoK9pg/Dbkvf2ucF6PR2e98+bx8v3bp53vYt26X3JVoUZLFq3oLYKiMjWoBey9dsGWmcMZSCaaER6Mil3dgSmssYR7EeuA704uI/ilUbJfdVeKDDCMpjuELf7dKnIIW2r8iedqBl6tt+X0Omsj/65LNlQ5M+5bqsBej4dA9aNtYaEyCNB8ZMeI0M/RmClTIxUo0KA+pFzCyZVJHHcfU7d6O+Rt7RCCP4hB/+nZtRVVmL+v2mrWX2BWbbrjzas78NprvR+Jb1+yU2hrZnhhErsgkY7UALxEuB3tX2PP7r9/8N3+7nky8rEWhbgUXMh8O4ZU2AjOyzXh6yIZOnHVaGjl8Lor59AjH78dyeMcQmO7DpkNUmfWv8GJKXjxJzONMktrLYT8/QSV+z6GzqxkwCiF32Y9elGIptAsZFoPuMl40kQwvgPe+ex3P7DxJom+O07fzloDFLaGTiyuxAy4yg2cfK2jXHMZWEUQym4Jcje/JkRfsrAg3M9/rQOS0zkkGMx1M2zNt1fwLGFaDTYrXirmTxcl2clxxhHK0JYCRXhv7loDEtLVPd27vCZoZOxBCRN/FWBTqLfQH60IQZhnQb94fh3x9A20sTkFdLim0CRjvQ5QpqvuNyDvQibp3zJ1822tW6FZ030kGNYuiZDWYNLe98dJkvJlXUNSNweSEPoLPYj4fR2VCLivQa2hhkDEPPbEWnnXO8XkPnG/hy7ecc6HJVQs24mKHV6JrVKoHOKk1BThDogsiYvxECnb9Wa+lJoNei2jquIdDrEC+PSwl0HiIVsguBLqSay20R6OWaKG0h0ErlBYFWq+8y6wR6mSQFbSDQBZVzdWMEenWN1tODQK9HvTVcS6DXIJqDSwi0A7EK0ZVAF0LF7DYIdHZtlJwh0EpkTRrVAvQbb502/k9M/hIAAACiSURBVAFG+Se9vL6KFlzUKaAFaHW3T8tUIFMBAp2pB49KXAECXeIB5O1nKkCgM/XgUYkrQKBLPIC8/UwFCHSmHjwqcQUIdIkHkLefqQCBztSDRyWuAIEu8QDy9jMVINCZevCoxBUg0CUeQN5+pgIEOlMPHpW4AgS6xAPI289UgEBn6sGjEleAQJd4AHn7mQoQ6Ew9eFTiChDoEg8gbz9Tgf8H9jiSVvm3NvkAAAAASUVORK5CYII=;" vertex="1" parent="1">
          <mxGeometry x="216" y="10" width="215.49" height="425" as="geometry" />
        </mxCell>
        <mxCell id="adMJRQDWogwTSIwhdotk-3" value="" style="shape=image;verticalLabelPosition=bottom;labelBackgroundColor=#ffffff;verticalAlign=top;aspect=fixed;imageAspect=0;image=data:image/png,iVBORw0KGgoAAAANSUhEUgAAAKoAAAIKCAYAAACz9dRFAAAgAElEQVR4Ae2d/3sbx33n++foBz0Pf+AjPg+fR2x5JUs7UegGMhTRSKySTokgDQVfVUqtDKVRoTZnqGFox+VR9/iI53w8tWLERIwUmRUjRnWsiBVbmoWPoWiLgS3TiOmC5cVw1ANTXN73fGZ3gV1w8WXBGWAX/OB5qAV2Zz4z856XPjs7MzvzW+APK+ABBX7LA3nkLLICYFAZAk8owKB6opo4kwwqM+AJBRhUT1QTZ5JBZQY8oQCD6olq4kwyqMyAJxRgUD1RTZxJBpUZ8IQCDKonqokzyaAyA55QgEH1RDVxJhlUZsATCjConqgmziSDygx4QgEG1RPVxJlkUJkBTyjAoHqimjiTDCoz4AkFGFRPVBNnkkFlBjyhAIPqiWriTDKozIAnFGBQPVFNnEkGlRnwhAIMqieqiTPJoDIDnlCAQfVENXEmGVRmwBMKMKgur6ZsYgy+M7NI58pnNH0tjOC1rfKB9KvLI2FMb1YVtBBocwbB0AzShTN1/cag1lXu0ollH84gGujEgYOtOBSIYfrhDoAtzJ2LYm67dDzjCoNqKMFHhQps4cbQAOIPCE4Aj6YQ7JnAqoMUGVQHYnHQWhXIYO6cH8NX15DOajayGYI2gdjBUSxjC9OhMCLnA2ghjzs4iel4GIfbWtHSFcGNFECgdp8IwdfWigMdIcRXNOjT9yfQ39GKAwc70X9pUTQh8rf+x0lM6zZb/FHdi5vK8HgN8UHy8u3wDQ6gW9z6d7BalLYphrKvfOtXJq1Dw7ktLMQj6OtqN936raBefgQgR1C3InglJRLI3I6KtimB6ouvaYmSRyaosouI9o5iIaPFW7joR/TeDgxQN64M5O0ILx6YwoYp2+br2ZVJ+EIzSN2LwTeyiAy1mSmdM/Mg86o/DKpqhauxn9tBRnhQLXA2OYNgL936zaCSZ9U+yyOtiC3pP5ZG86AWHqb0ePQANJLQAwLQwxqgGkctAHntQhp0znJdf5h651pYtKOpLS3+2sby+SokJP8bgypfU+cWcwnEOugWrrdRt+cR7SAAnIFKHjVreDryqJl5RMp41PW4v2qPmlkaEx71vdtR9F9KaB41l0G6igc954LsjsGg7takIWfMT/0tXWHEE3RDdQZqZGQCfdQeVdFGHQrhCMFPTZRLWvv4QMcAore0Johq0RhU1QqzfSkKMKhSZGQjqhVgUB0o/MzA1xCfnMK760kHsTioDAUYVAcqdjxxFN1PPQM6PnV8AN+5FMeb9+47sMBBa1VAGqjJ9z9As/8RoOa/3/ns0+j87DF09fbha38Swf/8u+9ha+vfaqiLyh36yKUwd2EAh8QQ6wSWH2ud/MFzscIDFI1sZZOYPtOjDQwEYpijZx1TXPGgpo+AbdyK5gcIhod6tS6v1Lw+lNuJvksJZI3BBiPtwUms0qDE9iJiYsi3HYeHJrH6uIZiO4giDdSu3uNo9j8zpKW+H/3iIH7yU6deVgO1XIf+xpUQglf1Tv57o+h7dU2MRhFM1PmefTOGFuozTYyh++wUlh9lkF6awfidFLCdxMKKPmHlwSR8FC57F9GewmAADSLEllK4/FwY0/rAwsLFAYw/oLwNYFz0QuzgjQvtAuj09TD6XrqL9c0M1u9MYlpcd0Cew6DSQHWYrieDF8PZ8/sB4WEDXx7Cd79/Ax9tflxjuayd7XYd+nQu38lOne1Ds6DO93zHv9G5n8tg9eYYhgcDONylD6XSUOjzfuGNhQ0C1Qiv51hLk7rDrOkErz+0DATQCJhIk7qprsRw8rgfh/1RzXPXWPpqojGo1aikhyFQqY3a9VQfTr0QxetzP8ann/7KgYVSQSuDuh4PYPim7hWpoz2j3fqLQU3fjmH4mt63uTKBIyMJCO9HgwEAxFCo8KjW4VXNoyYR90dww5gCuL2FTM6aNwPU1dfCGL+vDZ5mbkWqnmJYSoFK5xnUSgqZrv/lX79cw23dZKDkVysMdh4VNIFEbyeKdubKjrj1F4MK8p5DWhuVJpqINmq+PdmJvjNh+PTxeXMbtT+gDcsWBh6Mtqc1bwaoyLdltUkynmmjlqwDvuBaBdLJpD4UmsLlUA2TqetYMvaodRTbcVKbswj6J7BaYXa/Y7t6hI2beo9BWw+CetOgVluq4zGoqhWu2T7N+zyN+IOaDTRVRAa1qaqzeQvDoLqkbjPUN0ozn/K3YXqI0dqN9ACzq2M/t4U3RrQBAOPhiuab+oZOw9cWxnSKZjmFtC6pjhDG71OPgWYzUtx5b3oAo/e15uip327goIFaMagNFL+QtPbO1Et3kkhvJ/FGfAbLGSuoxR372XsxHLmoz7TfnMVJmoK3NIpu/ZzlemYRsd4YFrJkc3fnfTaVwHJS72rS3xiwHTgoZLju3xjUukteIsHNRVy+cBq+3h74zs9jQ/RfFjxqcTdUvpvIbE6fwU+niq9rs/UJ1MIs/nwY6mo6oXVp0YCAeFPAbuDAnFadvzOodRbcPrk1xEMT+Xeb5s4SoFaPWgyqxWNu30Xs7Cw2TKDSu1R5j2vxqLtBXX6lHZHbRue9/g6WzcCBfd7rc5ZBrY/OFVPZuKV3FdHboqKrqDyosLRRI7hM6wCYQKXr9m3U3aDSO1rDXe2ifTx8KozuV9dgO3BQsRTqAjCo6rRlyxIVYFAlismm1CnAoKrTli1LVIBBlSgmm1KnAIOqTlu2LFEBBlWimGxKnQIMqjpt2bJEBRhUiWKyKXUKMKjqtGXLEhVgUCWKyabUKcCgqtOWLUtUgEGVKCabUqcAg6pOW7YsUQEGVaKYbEqdAgyqOm3ZskQFGFSJYrIpdQowqOq0ZcsSFWBQJYrJptQpwKCq05YtS1SAQZUoJptSpwCDqk5btixRAQZVophsSp0CDKo6bdmyRAUYVIlisil1CjCo6rRlyxIVYFAlismm1CnAoKrTli1LVIBBlSgmm1KnAIOqTlu2LFEBBlWimGxKnQIMqjpt2bJEBRhUiWKyKXUKMKjqtGXLEhVgUCWKyabUKcCgqtOWLUtUgEGVKCabUqcAg6pOW7YsUQEGVaKYbEqdAgyqOm3ZskQFGFSJYrIpdQowqOq0ZcsSFWBQJYrJptQpwKCq05YtS1SAQZUoJptSpwCDqk5btixRAQZVophsSp0CDKo6bdmyRAUYVIlisil1CjCo6rRlyxIVYFAlismm1CnAoKrTli1LVIBBlSgmm1KnAIOqTlu2LFEBBlWimGxKnQIMqjpt2bJEBRhUiWKyKXUKMKjqtGXLEhVgUCWKyabUKcCgqtOWLUtUgEGVKCabUqcAg6pOW7YsUQEGVaKYbEqdAgyqOm3ZskQFGFSJYrIpdQowqOq0ZcsSFWBQJYrJptQpwKCq05YtS1SAQZUoJptSpwCDqk5btixRAQZVophsSp0CDKo6bdmyRAUYVIlisil1CjCo6rRlyxIVYFAlismm1CnAoKrTli1LVIBBlSgmm1KnAIOqTlu2LFEBBlWimGxKnQIMqjpt2bJEBRhUiWKqMJVNjMF3ZhbpXHnr6WthBK9tlQ+kX10eCWN6s6qghUCbMwiGZpAunKnrNwa1rnKXTiz7cAbRQCcOHGzFoUAM0w93AGxh7lwUc9ul4xlXGFRDCT4qVGALN4YGEH9AcAJ4NIVgzwRWHaTIoDoQi4PWqkAGc+f8GL66hnRWs5HNELQJxA6OYhlbmA6FETkfQAt53MFJTMfDONzWipauCG6kAAK1+0QIvrZWHOgIIb6iQZ++P4H+jlYcONiJ/kuLogmRv/U/TmJat9nij+pe3FSGx2uID5KXb4dvcADd4ta/g9WitE0xlH3lW78yaR0azm1hIR5BX1e76dZvBfXyIwA5groVwSspkUDmdlS0TQlUX3xNS5Q8MkGVXUS0dxQLGS3ewkU/ovd2YIC6cWUgb0d48cAUNkzZNl/PrkzCF5pB6l4MvpFFZKjNTOmcmQeZV/1hUFUrXI393A4ywoNqgbPJGQR76dZvBpU8q/ZZHmlFbEn/sTSaB7XwMKXHowegkYQeEIAe1gDVOGoByGsX0qBzluv6w9Q718KiHU1tafHXNpbPVyEh+d8Y1Co0feEvXsT3fvA6/t9vflNF6BqC5BKIddAtXG+jbs8j2kEAOAOVPGrW8HTkUTPziJTxqOtxf9UeNbM0Jjzqe7ej6L+U0DxqLoN0FQ96NSiyKwqDukuS3Sde/PbfoOOJoxj46imsPHhndwAJZ8xP/S1dYcQTdEN1BmpkZAJ91B5V0UYdCuEIwU9NlEta+/hAxwCit7QmiAQJyppgUMvKU7i49u66APW3n3waL357DJ98Uo+WWSH9/f6NQXVAwG9+8xvcmP0Rer/QjyP+E/jBzVugc/xRrwCDWoPGj//93/Hyf53A73zGjy9/bRjvPPx5DVY4ihMFGFQnahWFffTBh/ijUy/gd558Gn/98iV8+umvikLwT1kKSAP1X97+Gd5KrOzLv2//zaviYevIsT/AD//+dg11U7lDH7kU5i4M4JAYYp3A8mOtkz94LlZ4gKKRrWwS02d6tIGBQAxz9Kxjiise1PQRsI1b0fwAwfBQr9bllZrXh3I70Xcpgawx2GCkPTiJVRqU2F5ETAz5tuPw0CRWH9dQbAdRpIFKT8X8p2kw9uprDqqAgmqgluvQ37gSQvCq3sl/bxR9r66J0SiCiTrfs2/G0EJ9pokxdJ+dwvKjDNJLMxi/kwK2k1hY0SesPJiEj8Jl7yLaUxgMoEGE2FIKl58LY1ofWFi4OIDxB5S3AYyLXogdvHGhXQCdvh5G30t3sb6ZwfqdSUyL6w6L7SC4NFAdpNlUQXd2fo3/Fv9f+E9HjsEX+EPcmn+jhvJZO9vtOvTpXL6TnTrbh2ZBne/5jn+jcz+XwerNMQwPBnC4Sx9KpaHQ5/3CGwsbBKoRXs+tliZ1h1nTCV5/aBkIoBEwkSZ1U12J4eRxPw77o5rnrqHk1UZhUKtVyibc3YVFHHv2K/jdzx0XsP7frD5QbxO2/KnKoK7HAxi+qXtF6mjPaLf+YlDTt2MYvqb3ba5M4MhIAsL70WAAADEUKjyqdXhV86hJxP0R3DCmAG5vIZOz5s0AdfW1MMbva110mVuRqqcYlteh9FUGtbQ2Ja98/K9p/MkLUdHU+bNv/BekfmHUbMkoFS5YYbDzqKAJJHo7UbQzV3bErb8YVJD3HNLaqDTRRLRR8+3JTvSdCcOnj8+b26j9AW1YtjDwYLQ9rXkzQEW+LatNkvFMG7VCTTTF5Vwuh8kr38PvPfUMnnnua/jn5bc9Xa50MqkPhaZwOVTDZOo6lp49apViU6/GF788hCePfgnf/f4NELSu+WzOIuifwKrDLG3c1HsM2noQ1JsGrilTUUYY1CJB7H6e/+a3xW3+m996Bb/85BO7IA08R/NDTyP+oIFZqEPSDGoVIs/+6A4++LA+ky+qyM6+DMKguqTa6Wk82NUuZuL3XZjXXqLLPwQZDzZAhvpQaYZU/nZNDzta+5IedHYNAOS28MaINlBgPITRvFTf0Gn42vR4u94C0GxGijv5TQ9q9F7XHD1D2g0wKNCUQVUgqnOTO9hIJLBOvT1iBr8O0K5O9ffFu1Uv3UkivZ3EG/EZLGesoBYPAGTvxXDkoj4jf3MWJ2mq3tIouo1ztm8BfGTbyZ9NJbCc1Luk9DcLbAcYnAtQMQaDWlGi+gTYuBUTr6Fonfr6E7hdp/rmIi5fOA1fbw985+exIfo5Cx61uLsq351kLoY+01+cKur4194CKNHJT11SJ7SuL8qneKPAboDBnJak7wyqJCH3ZiaBl9qimCvyqLs71e8jHprIvwM1d5YAtXrUYlAtHnX7LmJnZ7FhBtX2LQDyqIXXUgzYl19pR+S20cmvv6tlM8CwNy3sYzOo9rrU+ewO1q9G8m+Vngz1Ypye4m061YXnNd4qFV1K5UGFpY0awWVaL8AMKoDdb6qSzd2g0rtcw9SObuvB8Kkwul9dg+0AgwL1GFQForJJ+QowqPI1ZYsKFGBQFYjKJuUrwKDK15QtKlCAQVUgKpuUrwCDKl9TtqhAAQZVgahsUr4CDKp8TdmiAgUYVAWiskn5CjCo8jVliwoUYFAViMom5SvAoMrXlC0qUIBBVSAqm5SvAIMqX1O2qEABBlWBqGxSvgIMqnxN2aICBRhUBaKySfkKMKjyNWWLChRgUBWIyiblK8CgyteULSpQgEFVICqblK8AgypfU7aoQAEGVYGobFK+AgyqfE3ZogIFGFQForJJ+QowqPI1ZYsKFGBQFYjKJuUrwKDK15QtKlCAQVUgKpuUrwCDKl9TtqhAAQZVgahsUr4CDKp8TdmiAgUYVAWiskn5CjCo8jVliwoUYFAViMom5SvAoMrXlC0qUIBBVSAqm5SvAIMqX1O2qEABBlWBqGxSvgIMqnxN2aICBRhUBaKySfkKMKjyNWWLChRgUBWIyiblK8CgyteULSpQgEFVICqblK8AgypfU7aoQAEGVYGoMk1mE2PwnZlFOlfeavpaGMFrW+UD6VeXR8KY3qwqaCHQ5gyCoRmkC2fq+o1BravcpRPLPpxBNNCJAwdbcSgQw/TDHQBbmDsXxdx26XjGFQbVUIKPChXYwo2hAcQfEJwAHk0h2DOBVQcpMqgOxOKgtSqQwdw5P4avriGd1WxkMwRtArGDo1jGFqZDYUTOB9BCHndwEtPxMA63taKlK4IbKYBA7T4Rgq+tFQc6QoivaNCn70+gv6MVBw52ov/SomhC5G/9j5OY1m22+KO6FzeV4fEa4oPk5dvhGxxAt7j172C1KG1TDGVf+davTFqHhnNbWIhH0NfVbrr1W0G9/AhAjqBuRfBKSiSQuR0VbVMC1Rdf0xIlj0xQZRcR7R3FQkaLt3DRj+i9HRigblwZyNsRXjwwhQ1Tts3XsyuT8IVmkLoXg29kERlqM1M6Z+ZB5lV/GFTVCldjP7eDjPCgWuBscgbBXrr1m0Elz6p9lkdaEVvSfyyN5kEtPEzp8egBaCShBwSghzVANY5aAPLahTTonOW6/jD1zrWwaEdTW1r8tY3l81VISP43BlW+ps4t5hKIddAtXG+jbs8j2kEAOAOVPGrW8HTkUTPziJTxqOtxf9UeNbM0Jjzqe7ej6L+U0DxqLoN0FQ96zgXZHYNB3a1JQ86Yn/pbusKIJ+iG6gzUyMgE+qg9qqKNOhTCEYKfmiiXtPbxgY4BRG9pTRDVojGoqhVm+1IUYFClyMhGSitg3BVKh6jmSkNAvXrth3jhL16sJn8cxvMKeBDUtxIrOHYihI4njiI+ecXzVcAFqEYBD4H60ebHwoMSoCeHvw76zR+zApU79JFLYe7CAA6JIdYJLD/WOvmD52KFByga2comMX2mRxsYCMQwR886prjiQU0fAdu4Fc0PEAwP9WpdXql5fSi3E32XEsgagw1G2oOTWKVBie1FxMSQbzsOD01i9bGpPJRefnAihD4xaAFgl21TnApfld/645NT+MzTz+LYs1/BT356v0J29utlDdRyHfobV0IIXtU7+e+Nou/VNTEaRTBR53v2zRhaqM80MYbus1NYfpRBemkG43dSwHYSCyv6hJUHk/BRuOxdRHsKgwE0iBBbSuHyc2FM6wMLCxcHMP6A8jaAcdELsYM3LrQLoNPXw+h76S7WNzNYvzOJaXFdq7/svRiOXNQHBbbnERGg2tmuvr6VgWrc5p88+iW+zVesD2tnu12HPp3Ld7JTZ/vQLKjzPd/xb3Tu5zJYvTmG4cEADnfpQ6k0FPq8X3hjYYNANcLredPSpNu0NZ3g9YeWgQAaARNpUjfVlRhOHvfjsD+qeW7dVj6M+G3c+u1sVzfbi8xIB9V8mz97/kW+zeuVV/5QGdT1eADDN/WKpY72jHbrLwY1fTuG4Wt63+bKBI6MJCC8Hw0GABBDocKjWodXNY+aRNwfwQ1jCuD2FjI5a94MCFdfC2P8vjZ4mrkVsUwxtHjUzVmcFB7VznZ5VcxXpYH66ae/gnGb1x6WprD89kr+7931pDndXd/pujm8k++7jJlO7MUulanUh/5DlstjqXj2560w2HlU0AQSvZ0o2pkrO+LWXwwqyHsOaW1Ummgi2qj59mQn+s6E4dPH581t1P6ANixbGHgw2p7WvBmgFtqb2iSZ0m3UMPratKHZ3bbt1bA7Kw3Ul8cnxNM8QWr3Rw9R5T503S5eNedU2aXmS6kP9VqUy1upeG46n04m9aHQFC6HaphMXcfCSAOV8izapc9+RVQgeddyHqmOZeSkSiiwcVPvMWjrQVBvGpQI2vDTUkE1SkPehh6iqM+Un/QNVfi4FwWUgEoZIm/6V9/6jvCu4dPcd7qXShJxi57S92zPYwaUgWroQM2Bga+e4uaAIYjtkR5Ywjh5qhMH6Inc1EF/KDCB5fdmEDS6jei63cz8pVH4hk7D10ZtzQRixyOIiIeqdvjOz4uX8uhhJuJv12bsn5/BurmT3jZf7jmpHFSjqN/9/g1uDhhi7DpqoIoOfwB2nfvmfk/zzPv8zPylUXQbnew0PbBN72bKJXE5QPCmxLGQRhh9+lsCu7LjwhN1A5XKXtwc4IctgwhrF5Bd537adOu3zLwXQ5yjWNZn72sWE4iJ95u0X1p46zkz+EYu3HysK6iGEO88/Dnm/+Gu8ZOPBmy6Enad+wKsi4sihO3M/IqgJhHvDYM9KuO2BwWsHtWucx/ZBMapfVmmjWp5Z2qXRwW4jbqHKuKorEA1CjTk1l9NxjiMAwU2ZxH0T2C1wrI/Diy6LiiD6roqcZohWhDiNOIPnMbzVngG1Vv1tW9zy6C6pOpp+l2wizrjO9F3Qeugt5tFn6FJ0/RKdH58XuuDpdX5aGbTrhn/uS28MaK9GWDMuqKFKAqDA8DuZX80m5HiWf2mmVm0kNscTQe0e6NAgaYMqgJRnZvcwUYigXV96Z25c9pMpt2z6N8Xi6m9dCeJ9HYSb8RnsJyxglo843/X3FDqDTAPDtgu+/OR7az+bCqB5aQ+B1VfSsj2jQLnAlSMwaBWlKg+ATZuxcS6U9osfn3Knd0s+s1FXL5wGr7eHjE0uiEmNutgG7PvKcv6AEF+/qi5GOY+V9NAgggirpWY1U/vPJ3Q5rpSPkV3mN0bBea0JH1nUCUJuTczCbzUFsVckUfdPYv+PuKhifyiZ3NnCVCrRy2eSG3xqNt3ETs7iw0zqLbL/pBHLaxDZcC+/Eo7IreNWf364mw2bxTsTQv72AyqvS51PruD9auR/DKSJ0O9GKen+Pxbm4VZ9MLzGstIijmk5UGFpY0awWVaINgMKkq1UXeDSou3DVM7uq0Hw6fC6H51DbZvFChQj0FVICqblK8AgypfU7aoQAEGVYGobFK+AgyqfE3ZogIFGFQForJJ+QowqPI1ZYsKFGBQFYjKJuUrwKDK15QtKlCAQVUgKpuUrwCDKl9TtqhAAQZVgahsUr4CDKp8TdmiAgUYVAWiskn5CjCo8jVliwoUYFAViMom5SvAoMrXlC0qUIBBVSAqm5SvAIMqX1O2qEABBlWBqGxSvgIMqnxN2aICBRhUBaLKNJlNjMF3ZhbpCutKicUnrlW3wZh1fVWZuVVni0FVp60jy4U9mFpBq5BM09ui2MLcuSjmtiubYlAra8Qh9qzAllgBJa5vpiuWO++ZwKoDuwyqA7E4aK0KZDB3zo/hq2tI0z6QtKRThjyqsY+ovhZUfsfmSUzHw/l1AG6ktHWnuk+E8rtFx1covt07+0D+1m+3aYWI5b5/+Nbvljqh5XviEbGsT+HWbwW13O7T5FF98TWtNI+mEKQ1pmzXldrJg2q7aYVb9CjKB4NaJEhDfuZ2kBEeVEudViQJ9tKt3wxqYeUSu71Srbd+PZ7tulJbeVDznlUkS167kEZDdCiTKINaRpy6XcolEOuI4EZKu11jex7RjjEsOwSVPGqWegcMj2q7rlTBo9puWlG3QjtLiEF1ppey0OanfrGOaYIWI3PmUSMjE9raqR0hcBtVWVWxYVagtALsUUtr450rLtxswtpm3ruUDQP19bkf78q93bldgSqcODn8ddsQH21+LLZpN1+0O2e+7o3v7txswtOg0paS8ckpEEy0VTp96NzVaz8UG/sa5+hIG/3S30//8Z/Fdur0nUA2ztP26hSXbNE52mv15fEJsd8qHek6nafrRlja7frs+RcxO3cnnzadozDGOW/A6f5cehpUguTYiRDIkxkfu3MdTxw1LgsvSMDRh4D65rdeycNO5wheA34jjHGksN+5FBfx6Bx9CNrPPP2sAFs/JdKgcwR4oz7e2GwiiWl90KHFH9WHeQuKURn6xUYYAfSf6NWWTgd5fOvgRCFG9d/qfusnUAzgjGwWnyMw311PCqBpG3UKTx+Cmrwthac/8qLkEeljhDFDTdcpHNmg/xzh018X4Y3/KOZzlF7jPt7YbKL8AIFp9+ocwRkQoNLS7L6RRWSMbrMz89AWV3emdt1BNbJnB4ZxzgCXwPyXt3+W93QGtAQlhaHw9J3gNbwhHemPwhq3fvK61EwwADXyQL+LzxnX6n30wmYT5QcIrLtXG7d+OmobaLRqxzbqH3b+aRiozrPqrhizP9LauXJy5Y3NJsoPEJg9agbLr2geNXM7iv5LCc2j5jJIVzETzE5TBtVOlQrn3nu0gb9+eRzf+OYIVlb18fUKccpf9sZmE2LX6yrbqMFBv769zxYWLmlt1AMdA4jeSpWXosRVBrWEMNWcfvPefYTP/Dle/R9/i08+qaXlVU0qHIYUYFD3yMF//EcOf3d1Bl/+2jD+/vY/7NEaRy+lgDRQ/3HxLRT/mRP99a9/vet6cXj6XfyxC2N3zhxv48NfKEvr4c/fMyeFf15OiLR+cHMOp89dQOiPz+LOm/csYWT8SN88jSPxRvZMyChF7TakgUr9lea/719/3ZIrAtV8vdR3SyQA//21v6sY7+7CP1miEail7JvPWyIBVbLAjXsAABf9SURBVMWxA9Ww+ScvRPGZo1/Cd793vdg0/96jAtJA3WM+PB2dHqjowYoesN579EFNZck+nNJ2xdN3lzb2OD15qhMHRhKF3fZyKczpuz6LWVbi9ZUEYsfDOOlv1zvZa8qCqyMxqHuonl/+8hPxIEUPVPRgVfunuGtnALEl7fUTMaufDBvbQm4nsbCiv236YBI+gpimA/aManuk1p4JV8dkUGusHupHpQcoepCiB6q9fayd5Zqtohn3BqiP1xB/3o9DB/UOdANUevVkb5lwdWwGtYbq+eUnn+DV1/4WH6Y+qiG2XRSzR93B6pUIxpesOzwbHjV9PYw+sVkvQGPreY/KoNoJy+dkK2Bpo47cRTpXwqNuLyIW6MQBasueCcMnxs7tPLLsHDbWHnvUxurPqVepAINapVAcrLEKMKiN1Z9Tr1IBBrVKoThYYxVgUBurv5661mcaKbNkD0wd/YcCE1h+rC3jEzwXK7wiTZ3/2SSmz/Sg5aC22NocTVYyxS0MEgAbt6L5JYCGh3oRWwKQmkfUeFi7lEAWVeStDhoyqHUQuXISGgzlluzZuBJC8Ko2RS5zbxR9r66BJiX36XM9s2/G0EJ9qokxdJ+dwvKjDNJLMxi/kwLsBgmydxE1BglytPZVK2JLKVx+LozpRwR3BgsXBzD+oHLeKpdv7yEY1L1rKMECwVBYTsduyR46Z5kpPzSLd66FNS9IOTCW78llsHpzDMODARzu0heisBskMMLrudfSpAUvrOkErz+smDcJAlQ0waBWlKgeASqDuh4PYPimPnRKM+Uz2q1f3K4pizp46dsxDF/TJyevTODISAK2gwRFC6hpHjWJuD+CG5t6mbe3kCnqz7X7T1QPhRjUeqhcMY3KoIrZ9ebJKCs74tZfDCrIew5pbVR6U1S0UW0HCaxt1P4A3fqBwtJC7Tg8NInVx1XkrWL59h6AQd27hp61kE4m9XeZUrgcCmPa8KQuLBGD6sJKqVeWNm7qPQZtPQjq8wfqlbbTdBhUp4px+IYowKA2RHZO1KkCDKpTxTh8QxRgUBsiOyfqVAEG1aliHL4hCjCoDZGdE3WqAIPqVDEO3xAFGNSGyM6JOlWAQXWqGIdviAIMakNk50SdKsCgOlWMwzdEAQa1IbJzok4VYFCdKsbhG6IAg9oQ2TlRpwowqE4V4/ANUYBBbYjsnKhTBRhUp4px+IYowKA2RHZO1KkCDKpTxTh8QxRgUBsiOyfqVAEG1aliHL4hCjCoDZGdE3WqAIPqVDEO3xAFGNSGyF59otnEGHxnZpGusJ+FsZtzNZatu0RXE0NfMqiB+wQwqFXWk+pghaV0tOUipx/uANjC3Lko5qrYkZlBVV1DbF8AeWNoAHGxuRmAR1MI9kxg1YE2DKoDsThorQrQ+qR+DF9dQzqr2chmyKPSMpC0HCUtVBZGuYV+CdTuE6H8wrzxFYoPpO9PoL+DlpLsRP+lRdGEyN/6HycxXWZbc7Hg2iDtwNIO3+AAusWtfwercW1b85auCG7Utqu5Y6H41u9YMkURcltYiEfQ19WOQ4EYtFu/FdRyC/0SqL74mpY58sgEVdHSkgsX/Yje24EB6saVAQSv6KRRnMAUNkzFM18Xe1qFZpC6F4NvZFFbXI3iiO2DTJEUfWVQFQnryGxuBxnhQbVY2eQMgr106zeDWn6hX+utX49XtFivsamaAapx1FK1Li9J5yzXyVZoRiwebFlQuG0My44KW1vghoB69doP8cJfvFhbjpsxVi6BWAfdRrXbNbbnEe0gAJyBSh41S70DhkfNzCPSq++RKpY6t3rU9bi/ao+aWRqDLzSD925H0a8vx07Lp6ereNCTUWV1BfWtxAqOnQih44mjiE9ekZH/prFhfuoXG0IkMkVt1MoeNTIyUdh4QnYbdSiEI9ScoCbKJa2NeqBjANFb9Wmk1gXUjzY/Fh6UAD05/HXQb/6wAk4UUA5qfHIKn3n6WRx79iv4yU/3slW4k2JxWKcKWNu4VcbOpTAd8mP8QZXh9xBMGajGbf7Jo1/i2/weKqheUWsClTKXnMJJ6gVQnFHpoJpv82fPv8i3ecUVKMt8zaDKykAFO9JA/fTTX8G4zWsPS1NYfnsl//fuerJsVui6ObyT7+UM78UulanUh/5DlstjqXj257UO/ZOnOnGANjUz7bRn7NKH/M4m5t1KrIMAq49pIzN62AnhEO0X1RHC+H3a8ieB2PEIImK3lHb4zs8jDYD6RsVgQFsA/Sd6EbxGYW069JdG4Rs6DV+bdUMKih/sate2ZL+g2bQv397PSgP15fEJ8TRPkNr90UNUuQ9dt4tXzTlVdqn5UupDvRbl8lYqnv15DVTRoQ/Adpe+62H0vXQX65sZrN+ZxHTifUyHAojr7cONK2EBWvZeDEcu6h3ymUXEemNYyCYQa9P3j8olcTlAwKXEURtEIDgD+fi7OvSXRtFt2MwXYAcbiQTW6Z4vdv6zQpwPJumLNFApP6Jd+uxXRAWSdy3nkSTlv0nMWDvb7XbpE91CV2I4edyPw2L/KA3u/JY7j6bQR5ufmXfzy3faJxAzzXzSOvKt54xbPx13degvjere1ir3xq2YGEnTwnsIVKMY5G3oIYr6TPlJ31Cl3NEKqt0ufauvhTF+X3tkydyKIHiNtn7c7VEzt6P2HnUXqGaPmsHyK5pHpfi7OvRtQU3gpbYo5rzoUc1VQd70r771HeFdw6e579Ssze7vVlDtdukr7PrcikODxo56vegbDGg7SYtzZdqou0C1tlGDg37Na9p16NuCuoP1qxEcbmsFTU45GepV2k0l9da/uwK05sDAV09xc8BOnD2dK7r178mW+yMrB9WQ4Lvfv8HNAUMMKUcGVYqMdkaKmwP8sGWnEp+zU6BuHtWc+DsPf475f7hrPsXfWYGyCjQE1LI52pcXtdt4uRn8doMAokvpnL7xbkdIe5Ulm8T0GW0bdJqALbZBNw0giJlZ+isvG7ei+TcChod6xTbohYe2TvRdSiBbxdsF9agyBrUeKldMQwO13Ax+20GAa2EBUyYHZN+MoYVGtRJj6D47heVHGaSXZjB+JwVsJ7GwQqNOAB5MwkfhsncR7SnMVZ0714rYUgqXnwtj+pHWib9wcQDjDyrnrWLxJARgUCWIuHcTBEP5+aZ2gwDvmDv3jdn8uQxWb45heDCAw10hiHenHq8h/rxfG1aloVUC1QivZ57sx5Zooja9X1X4C16n/tryedt7+StbYFAra1SHEJVBtRsEsIxC6eClb8cwfE2fzLwygSM0WkXDrzT7Xx/f1zzqIqKm2f+aR00i7teHWqnU21vI5CrnrQ4CgUGth8oV06gCBnpj9MKA8IqinbmyYx0uNTwkeU8x+aQVLWKolYBbRCxAb5N2ou9MGD79hTxzG7U/QB4VKLxpYJ78wh61YhVyAHUKpJNJ7W3SXAqXQ2rH6vdaCvaoe1XQw/E3buo9Bm09COpNA7cWh0F1a81wviwKMKgWOfiHWxVgUN1aM5wviwIMqkUO/uFWBRhUt9YM58uiAINqkYN/uFUBBtWtNcP5sijAoFrk4B9uVYBBdWvNcL4sCjCoFjn4h1sVYFDdWjOcL4sCDKpFDv7hVgUYVLfWDOfLogCDapGDf7hVAQbVrTXD+bIowKBa5OAfblWAQXVrzXC+LAowqBY5+IdbFWBQ3VoznC+LAgyqRQ7+4VYFGFS31gzny6IAg2qRg3+4VQEG1a01w/myKMCgWuTgH25VgEF1a81wviwKMKgWOfiHWxVgUN1aM5wviwIMqkUO/uFWBRhUt9YM58uiAINqkYN/uFUBBtWtNcP5sijAoFrk4B9uVYBBdWvNcL4sCjQdqLSbdccTRxF9cdRSUP7hbQUYVG/X377JPYO6b6ra2wVlUL1df/sm9wzqvqlqbxeUQfV2/e2b3DOo+6aqvV1QBtXb9bdvcs+g7puq9nZBmxLUPwj9MXf4e5vLXblvOlB3lZBPNIUCDGpTVGPzF4JBbf46booSMqhNUY3NXwgGtfnruClKyKA2RTU2fyEY1Oav46YoIYPaFNXY/IVgUJu/jpuihE0HKr2K8uOf/FT8NUUNcSGEAk0JKr8z1Xx0M6jNV6dNWSIGtSmrtfkKxaA2X502ZYkY1Kas1uYrFIPafHXalCViUJuyWpuvUAxq89VpU5aIQW3Kam2+QjGozVenTVkiBrUpq7X5CsWgNl+dNmWJGNSmrNbmKxSD2nx12pQlYlCbslqbr1AMavPVaVOWiEFtymptvkIxqM1Xp01ZIga1Kau1+QrVdKAuLC7B+Gu+6tq/JWo6UPdvVTZ3yRnU5q7fpikdg9o0VdncBWFQm7t+m6Z0DGrTVGVzF4RBbe76bZrSMahNU5XNXRAGtbnrt2lKx6C6vCqziTH4zswinSuf0fS1MILXtsoH0q8uj4QxvVlV0EKgzRkEQzNIF87U9VvTgUqr+fX1/5Hn9pnKPpxBNNCJAwdbcSgQw/TDHQBbmDsXxdx2ZSYY1MoauSoEgeq91fy2cGNoAPEHBCeAR1MI9kxg1YGyDKoDsdwQ1JugZjB3zo/hq2tIZzUVsxmCNoHYwVEsYwvToTAi5wNoIY87OInpeBiH21rR0hXBjRRAoHafCMHX1ooDHSHEVzTo0/cn0N/RigMHO9F/aVE0IfK3/sdJTOs2W/xR3YubavHxGuKD5OXb4RscQLe49e9gtShtUwxlX5vy1u89jwogt4WFeAR9Xe2mW78V1MuPKBxB3YrglZSAInM7KtqmBKovvqaBQh6ZoMouIto7ioWMFm/hoh/RezswQN24MpC3I7x4YAobJtTM17Mrk/CFZpC6F4NvZBEZajNTOmfmQeZVfxhU1QpXYz+3g4zwoFrgbHIGwV669ZtBJc+qfZZHWhFb0n8sjeZBLTxM6fHoAWgkoQcEoIc1QDWOWgDy2oU06Jzluv4w9c61sGhHU1ta/LWN5fNVSEj+N2Wg/uvWvyH0n88i9Qunj5d7K2Q9b/2//OQT/NGpF/BoQ/NuNec8l0Csg27heht1ex7RDgLAGajkUbOGpyOPmplHpIxHXY/7q/aomaUx4VHfux1F/6WE5lFzGaSreNCrWRdTRCWgEqTHnv2KeKh5qu+5usJaL1AJ0i9+eUiU8XPH+vcMq/mpv6UrjHiCbqjOQI2MTKCP2qMq2qhDIRwh+KmJcklrHx/oGED01h7/k5pgLPdVOqhmSKmtSH/1hLUeoJohNcooA9ZyFbXfr0kF1Q5SoyLrBatqUO0gNcrYEFiL26FNSrQ0UMtBalRkPWBVCWo5SI0y1h3WCqCmb57GkXjS8/hKA/X5P/2GuM0bFVbq+NTxAWx8+AtlwqkCVUD6hyerKuMzz31NWfl2Ga4A6q7wHj0hDdR/TW/h2IlQVRWp0rOqALUaT2r8xzziP4Gfv/e+cxxS8/oQaif6LiWQzSURfy6iDZ+mZhAcmsFGDki/Oao9MLX1IEhP+XlQrd1L+S4svUuKuqZ8Q6fha6thnN95aaTHkAYq5cwNsMoGtS6QIoXLz4UxrXfoL1wcwPgDAKkZnPzmFC6fOo0b1Mtn6cDfwo1TYUyvGH2llUHtvqh31EvHSL1BqaC6AVaZoNYHUlKNuqH0DnT9GLyuzYRafqkHR4wRp7z3NIGRP1cZ1MKAgCm+R75KB5XKTZ716BcHG9IMkAVq/SAlxZKI+yOa16Sf21tah3pyCv0XNI86Td2VFo+awRsjEdxImD1qGCKcPswqRq9Mt34G1eZ/5UebHzcEVhmg1hdSTbxCh387Dg9NYjWdQMwfwxuPAWzO2rZRh68kTW1UIH07qk9KGcDwUEAbZmVQbegsOtUIWPcK6vb2/8mPOBkPSKWONT84FenEPysroOTWb0623rDuBVSC9Hj/V6tqsjCk5lpW/105qFSEesJaK6gMqXrY9pJCXUCtJ6wEauj5P3P0KooTSJ88+qXa+kn3UkscF3UDtZ6wOqlXp5C+8/DnTsxXGZa6lsrP4EcuhbkLAzgk3qmawPJjbVZ/8FysMGOKXmXJJjF9pkd7EyAQwxz1FpjiiplZ+isvG7eMh68Qhod6tYev4oGHKt4uqLKQewpWV1App/VsBlRSxh2QUi41UMvN4N+4EkLwqjalLnNvFH2vronXT2gUi2bbZ9+MoYUmSSfG0H12CsuPMkgvzWD8TgrYTmJhRX9D9cEkfBQuexfRnsLsf3prILZkN/BQOW+VdJZxve6gUqbdAKt7IDVALcyuzw9/0qX8rHzrgMCBoVnQbPv8TH+j4z+XwerNMQwPBnC4S393it59et4vvLGYlU+gGuF1irQ07QYeHlpm/tvlTTeh9NAQUKlEjYTVXZCSGiVGleiSDup6PIDhm7pXpJn1Ge3WXwxq+nYMw9f0ycwrEzgykkD6ehh9NC+Axgzo3SfhUa3vU2ke1W7goXLelBKqG28YqJQ+wfr7fc9V1R0kayKL+yAlJaqAgd4Y1duoop25siNu/cWggrznkNZGpTdLRRt1exExsWZAJ/rOhOHTX8gzt1H7A9p7WLsGHh5Xkbc6kNpQUKl8H6Y+qhus7oS0DrVcIol0Mqm/+5TC5ZC7Z1U1HNR6wcqQ7qZ146beY2BMGdwdxDVnXAGqalgZUtfwVnNGXAOqKlgZ0prZcFVEV4EqA1Yambr++pz4Y0hdxdqeMuM6UPcKqzHWfy4aq3qCSc/nA1Az4rSnuuHIJgVcCepeYDVAfeLzgaq6vQjSnz141yQJf3WjAq4FtRZYaWmd12/9WAD62/riF6XmktJ5htSNSNrnydWgUpY/+DAlVlopB5xxjV7F/vwzX64K1N/7/WfYk9oz4cqzrgeVVHMyKGBAW86jsid1JYtlM+UJUA1Ye7/QX1W7k2AtBSpDWpYH1170DKik4KMPPkS1sNqBypC6lsOKGfMUqE5gLQaVIa3IgqsDeA7UamE1g8qQuprBqjLnSVBpxKk/9Mdl26tmUGlRYWo28Me7CngO1GqHRc2g0sNV3ZeD9C4Trsy5p0CtFtJST/0MqysZrCpTngHVCaSlQGXPWhUTrgzkCVCdQloOVIbVlRxWzJTrQd36t23QCs4EWKU/Ghbt+fwXRbjiNmpxXBpu5Qesiny4JoCrQXXiSX/vqWeQWFnF937welWgsmd1DYNVZcS1oNYCKZXYmOb3u5/7QkUPzLBWxYgrArkS1FohNYN65ut/CVpxr/iWb/ebewNcwWLZTLgOVNoGqNqlH43bvbmEhkeNvjgqFjNjWM3qePe7q0CtZq8qwyPaQUrV8Fbif+f/6DftUMKwehdQI+euAdUJpF29x8WDk1GISkeGtZJC7r/uClCdQrq0/LZjZRlWx5K5KkLDQa0HpIbiDKuhhPeODQW1npAaVcOwGkp469gwUBsBqVE1DKuhhHeODQG1kZAaVcOwGkp441h3UN0AqVE1BCttHmF0eZU78qCAoVpjjnUF1U2QGnLTUj4Mq6GGe491A9WNkBrVwrAaSrj3WBdQ6wkpDaHScus0hOrkw7A6Uav+YZWDWk9IST7zWL9TORlWp4rVL7xSUJ1A+rtHvoBaRpyKpdoLqGSLYS1W1B2/lYHqFNJ//Ke3pCiyV1AZVinVIN2IElAbBSmpIwNUhlU6Z3s2KB3URkIqE9RaYE2+/8GeK4QN2CsgFdRGQ0pFlOVRDbmctFk/+/QJMKyGcnKP0kB1A6QqQCWbBCutX1Vu5Mq4xrDKBdSwJg3U5//0G1VVJFXowuKSkb70o2yPamSQ1vmn17ENIMsd6VUa/shVQBqov/jo4/yy5KUqkbqgZD3dl5Jh9kd38Lljf4BzFy6WClLzeYK1kmel4dj15Ps1p8ER7RWQBiqZ3/jwFyUX2q0HpJQHVR7VkK8crPQe19q760ZQPkpUQCqolK/3H23smuRRL0gpfdWgUhp2sNJ7XP/y9s8kVg2bMisgHVQyTl7FuEV2fvaY8tu9uUAEKi0B5HSs32yjmu9mWOk/4j+9lagmGoepUQEloFJeVh68gyd9X8TdhcUas+b+aATrZ55+VunDoftVqE8OlYFan+xzKvtFAQZ1v9S0x8vJoHq8AvdL9hnU/VLTHi8ng+rxCtwv2WdQ90tNe7ycDKrHK3C/ZJ9B3S817fFyMqger8D9kn0Gdb/UtMfLyaB6vAL3S/YZ1P1S0x4vJ4Pq8QrcL9lnUPdLTXu8nAyqxytwv2SfQd0vNe3xcv5/zr74rDKr8uwAAAAASUVORK5CYII=;" vertex="1" parent="1">
          <mxGeometry x="440" y="10" width="170" height="522" as="geometry" />
        </mxCell>
      </root>
    </mxGraphModel>
  </diagram>
</mxfile>
